<svg width="100" height="100" viewBox="0 0 100 100" fill="none" xmlns="http://www.w3.org/2000/svg">
  <path d="M25 15C22 15 19.5 17.5 19.5 20.5C19.5 23.5 22 26 25 26C28 26 30.5 23.5 30.5 20.5C30.5 17.5 28 15 25 15Z" fill="#E29578"/>
  <path d="M40 15C37 15 34.5 17.5 34.5 20.5C34.5 23.5 37 26 40 26C43 26 45.5 23.5 45.5 20.5C45.5 17.5 43 15 40 15Z" fill="#E29578"/>
  <path d="M17.5 25C14.5 25 12 27.5 12 30.5C12 33.5 14.5 36 17.5 36C20.5 36 23 33.5 23 30.5C23 27.5 20.5 25 17.5 25Z" fill="#E29578"/>
  <path d="M47.5 25C44.5 25 42 27.5 42 30.5C42 33.5 44.5 36 47.5 36C50.5 36 53 33.5 53 30.5C53 27.5 50.5 25 47.5 25Z" fill="#E29578"/>
  <path d="M32.5 28C27.5 28 23.5 32.5 23.5 38C23.5 43.5 27.5 48 32.5 48C37.5 48 41.5 43.5 41.5 38C41.5 32.5 37.5 28 32.5 28Z" fill="#E29578"/>
  
  <path d="M75 65C72 65 69.5 67.5 69.5 70.5C69.5 73.5 72 76 75 76C78 76 80.5 73.5 80.5 70.5C80.5 67.5 78 65 75 65Z" fill="#83C5BE"/>
  <path d="M90 65C87 65 84.5 67.5 84.5 70.5C84.5 73.5 87 76 90 76C93 76 95.5 73.5 95.5 70.5C95.5 67.5 93 65 90 65Z" fill="#83C5BE"/>
  <path d="M67.5 75C64.5 75 62 77.5 62 80.5C62 83.5 64.5 86 67.5 86C70.5 86 73 83.5 73 80.5C73 77.5 70.5 75 67.5 75Z" fill="#83C5BE"/>
  <path d="M97.5 75C94.5 75 92 77.5 92 80.5C92 83.5 94.5 86 97.5 86C100.5 86 103 83.5 103 80.5C103 77.5 100.5 75 97.5 75Z" fill="#83C5BE"/>
  <path d="M82.5 78C77.5 78 73.5 82.5 73.5 88C73.5 93.5 77.5 98 82.5 98C87.5 98 91.5 93.5 91.5 88C91.5 82.5 87.5 78 82.5 78Z" fill="#83C5BE"/>
</svg>

