<?xml version="1.0" standalone="no"?>
<!DOCTYPE svg PUBLIC "-//W3C//DTD SVG 20010904//EN"
 "http://www.w3.org/TR/2001/REC-SVG-20010904/DTD/svg10.dtd">
<svg version="1.0" xmlns="http://www.w3.org/2000/svg"
 width="566.000000pt" height="441.000000pt" viewBox="0 0 566.000000 441.000000"
 preserveAspectRatio="xMidYMid meet">

<g transform="translate(0.000000,441.000000) scale(0.100000,-0.100000)"
fill="#000000" stroke="none">
<path d="M2565 3956 c-152 -48 -261 -169 -294 -324 -6 -29 -11 -136 -11 -237
l0 -185 -298 0 c-317 0 -326 -1 -352 -50 -9 -16 -33 -255 -70 -685 -5 -66 -28
-316 -50 -555 -22 -239 -50 -545 -62 -679 l-22 -244 32 -28 32 -29 1214 0
c1194 0 1214 0 1238 20 33 25 37 52 27 153 -4 45 -13 138 -19 207 -19 228 -79
890 -110 1220 -17 179 -35 381 -41 450 -13 158 -15 167 -44 196 l-24 24 -305
0 -305 0 -3 228 c-3 211 -5 230 -26 277 -53 115 -155 207 -266 239 -64 19
-185 20 -241 2z m220 -185 c22 -10 57 -36 77 -59 57 -63 68 -116 68 -324 l0
-178 -245 0 -245 0 0 188 c0 103 5 204 10 224 15 53 68 117 120 144 57 30 155
33 215 5z m815 -761 c0 -11 18 -214 40 -452 22 -238 47 -505 55 -593 30 -337
45 -504 55 -620 5 -66 13 -144 16 -172 l6 -53 -1087 0 -1088 0 6 83 c4 45 33
377 66 737 33 360 67 738 76 840 9 102 18 200 21 218 l5 32 914 0 c905 0 915
0 915 -20z"/>
<path d="M2537 2875 c-304 -58 -544 -280 -633 -585 -14 -50 -19 -97 -19 -205
0 -165 14 -227 80 -360 99 -201 256 -335 480 -410 115 -39 294 -46 417 -16
169 40 288 110 412 241 124 132 198 303 212 491 17 227 -72 458 -241 624 -112
110 -228 175 -375 211 -87 22 -244 26 -333 9z m278 -180 c337 -71 558 -419
479 -755 -41 -175 -173 -341 -334 -418 -151 -73 -329 -87 -471 -37 -189 67
-336 213 -400 395 -31 88 -38 259 -15 351 29 114 81 206 165 290 103 103 194
151 346 183 46 9 165 5 230 -9z"/>
<path d="M2480 2475 c-61 -65 5 -173 89 -144 62 22 80 97 35 143 -36 35 -91
36 -124 1z"/>
<path d="M2765 2475 c-67 -66 6 -176 92 -140 87 37 62 165 -32 165 -25 0 -44
-8 -60 -25z"/>
<path d="M2245 2285 c-67 -66 6 -176 92 -140 87 37 62 165 -32 165 -25 0 -44
-8 -60 -25z"/>
<path d="M3001 2286 c-26 -28 -31 -87 -10 -113 56 -66 159 -30 159 55 0 72
-100 111 -149 58z"/>
<path d="M2615 2211 c-95 -25 -181 -99 -226 -194 -66 -140 -19 -282 118 -355
32 -16 85 -35 119 -41 202 -37 399 117 381 298 -11 107 -101 227 -204 273 -50
22 -141 32 -188 19z m136 -194 c44 -30 79 -83 79 -120 0 -64 -99 -119 -182
-102 -116 25 -145 110 -66 193 56 58 112 67 169 29z"/>
</g>
</svg>
