<?xml version="1.0" standalone="no"?>
<!DOCTYPE svg PUBLIC "-//W3C//DTD SVG 20010904//EN"
 "http://www.w3.org/TR/2001/REC-SVG-20010904/DTD/svg10.dtd">
<svg version="1.0" xmlns="http://www.w3.org/2000/svg"
 width="548.000000pt" height="455.000000pt" viewBox="0 0 548.000000 455.000000"
 preserveAspectRatio="xMidYMid meet">

<g transform="translate(0.000000,455.000000) scale(0.100000,-0.100000)"
fill="#000000" stroke="none">
<path d="M1882 3790 c-81 -22 -187 -66 -214 -88 -35 -30 -12 -92 33 -92 11 0
36 8 57 19 58 30 170 61 255 72 200 25 427 -53 595 -203 28 -27 59 -48 67 -48
8 0 38 21 67 47 128 114 264 178 430 204 128 20 280 -8 423 -77 158 -76 270
-184 345 -335 66 -130 84 -212 84 -369 0 -188 -29 -309 -124 -505 -99 -205
-250 -407 -469 -625 -161 -161 -304 -279 -456 -378 -104 -68 -270 -152 -300
-152 -52 0 -306 147 -455 263 -418 328 -722 713 -840 1065 -33 98 -60 249 -60
332 0 79 28 225 56 296 32 79 31 111 -1 126 -57 26 -88 -19 -137 -202 -28
-102 -30 -310 -5 -427 75 -342 258 -644 602 -989 243 -244 432 -389 653 -501
139 -71 177 -81 235 -63 61 17 227 103 315 162 318 213 624 515 823 812 130
194 198 342 247 536 35 144 37 352 3 480 -88 331 -333 567 -669 646 -99 23
-333 15 -422 -16 -102 -34 -204 -86 -275 -140 -37 -28 -68 -50 -70 -50 -2 0
-33 22 -70 50 -71 54 -173 106 -275 140 -96 33 -344 39 -448 10z"/>
<path d="M1454 3535 c-20 -30 -11 -62 21 -77 52 -23 99 46 59 86 -23 24 -61
20 -80 -9z"/>
<path d="M2327 3286 c-85 -31 -137 -117 -137 -227 0 -87 22 -148 76 -208 52
-58 95 -75 169 -69 97 8 165 90 173 210 14 190 -136 346 -281 294z m124 -136
c28 -29 39 -51 45 -85 11 -75 -1 -126 -36 -157 -36 -33 -45 -34 -88 -8 -79 48
-98 204 -32 270 32 32 68 26 111 -20z"/>
<path d="M2945 3295 c-5 -2 -22 -6 -38 -9 -40 -9 -104 -72 -134 -130 -66 -129
-25 -310 82 -360 54 -26 135 -21 183 12 69 46 103 104 122 204 19 97 -30 216
-106 260 -29 17 -91 30 -109 23z m56 -115 c55 -30 67 -172 21 -238 -52 -72
-112 -75 -152 -10 -66 108 35 299 131 248z"/>
<path d="M1900 2861 c-120 -63 -128 -262 -17 -380 37 -39 120 -81 160 -81 33
0 94 24 121 48 61 55 74 179 28 277 -61 129 -192 190 -292 136z m151 -123 c97
-98 71 -253 -37 -218 -64 22 -120 133 -99 199 19 60 85 70 136 19z"/>
<path d="M3284 2856 c-88 -41 -154 -150 -154 -254 0 -65 38 -143 82 -170 84
-52 164 -37 248 47 190 191 54 484 -176 377z m130 -102 c55 -54 12 -196 -69
-230 -46 -19 -52 -18 -80 11 -46 45 -29 140 35 203 38 36 87 43 114 16z"/>
<path d="M2569 2697 c-90 -34 -141 -80 -196 -181 -31 -57 -52 -81 -118 -131
-68 -51 -85 -71 -115 -129 -32 -62 -35 -77 -35 -150 0 -68 5 -90 28 -137 32
-66 99 -132 165 -162 76 -35 186 -31 282 11 41 17 84 32 95 32 11 0 54 -15 95
-32 64 -28 87 -33 155 -33 98 0 158 25 227 92 151 149 122 388 -62 513 -58 40
-78 63 -133 161 -30 53 -80 100 -140 131 -53 27 -193 36 -248 15z m206 -118
c47 -22 76 -54 120 -137 27 -50 53 -77 160 -166 63 -53 89 -110 83 -187 -8
-108 -89 -189 -198 -197 -50 -4 -68 1 -138 32 -105 48 -149 48 -254 0 -70 -32
-88 -36 -139 -32 -79 6 -134 43 -171 117 -31 61 -35 114 -14 174 18 49 35 68
121 132 56 41 78 65 108 121 49 89 66 109 119 139 56 32 139 34 203 4z"/>
</g>
</svg>
