<?xml version="1.0" standalone="no"?>
<!DOCTYPE svg PUBLIC "-//W3C//DTD SVG 20010904//EN"
 "http://www.w3.org/TR/2001/REC-SVG-20010904/DTD/svg10.dtd">
<svg version="1.0" xmlns="http://www.w3.org/2000/svg"
 width="555.000000pt" height="449.000000pt" viewBox="0 0 555.000000 449.000000"
 preserveAspectRatio="xMidYMid meet">

<g transform="translate(0.000000,449.000000) scale(0.100000,-0.100000)"
fill="#000000" stroke="none">
<path d="M1926 3870 c-41 -13 -84 -58 -96 -99 -6 -22 -10 -226 -10 -503 l0
-468 -291 0 -291 0 -29 -29 c-28 -28 -29 -34 -29 -116 0 -124 19 -155 96 -155
l34 0 0 -725 0 -725 -55 0 c-61 0 -79 -17 -64 -58 l8 -22 1472 2 c1389 3 1472
4 1483 21 20 32 -4 52 -68 55 l-56 3 2 722 3 722 44 6 c69 9 81 31 81 151 0
92 -2 101 -25 123 l-24 25 -296 0 -295 0 0 483 c0 548 2 531 -80 574 l-43 23
-558 0 -559 0 -16 -25 c-16 -24 -16 -27 1 -45 18 -19 33 -20 572 -20 l554 0
25 -25 24 -24 -2 -468 -3 -468 -762 -3 -763 -2 0 475 c0 566 -14 515 138 515
63 0 102 4 110 12 18 18 14 56 -7 68 -23 12 -184 12 -225 0z m2152 -1222 l-3
-63 -1400 0 -1400 0 -3 63 -3 62 1406 0 1406 0 -3 -62z m-133 -170 c3 -13 4
-223 3 -468 l-3 -445 -92 -3 -93 -3 0 331 0 331 -25 24 c-23 24 -31 25 -134
25 -86 0 -113 -3 -125 -16 -20 -20 -20 -33 1 -56 13 -15 32 -18 105 -18 64 0
88 -3 88 -12 1 -27 1 -794 0 -805 0 -10 -57 -13 -250 -13 l-250 0 0 415 0 415
89 0 c94 0 121 11 121 49 0 40 -9 41 -431 41 -395 0 -407 -1 -433 -21 l-26
-20 -2 -332 -3 -332 -155 0 -155 0 -5 138 c-4 122 -7 140 -24 153 -16 11 -72
14 -287 14 -239 0 -269 -2 -288 -17 -19 -16 -21 -30 -23 -153 l-3 -135 -72 -3
-73 -3 0 464 c0 255 3 467 7 470 3 4 575 7 1269 7 l1264 0 5 -22z m-867 -710
l-3 -413 -250 0 -250 0 -3 413 -2 412 255 0 255 0 -2 -412z m-990 -350 l-3
-363 -227 -3 -228 -2 0 62 c0 67 -5 81 -32 91 -31 11 -47 -15 -50 -83 l-3 -65
-72 -3 -73 -3 0 211 0 211 73 -3 72 -3 3 -82 c3 -79 4 -83 28 -89 52 -13 54
-2 54 252 l0 234 230 0 230 0 -2 -362z m402 -28 c0 -132 -63 -120 634 -120
l595 0 20 26 c17 22 21 41 21 101 l0 74 93 -3 92 -3 1 -195 c1 -107 -1 -201
-3 -208 -4 -10 -187 -12 -887 -10 l-881 3 -3 208 -2 207 160 0 160 0 0 -80z"/>
<path d="M1755 2395 c-14 -13 -25 -35 -25 -49 0 -19 -6 -26 -32 -31 -60 -13
-68 -28 -68 -127 0 -100 15 -128 70 -128 26 0 30 -4 30 -28 0 -15 7 -38 16
-50 14 -20 23 -22 105 -22 50 0 99 4 109 10 11 6 21 26 25 50 6 36 10 40 36
40 54 0 69 28 69 128 0 95 -12 122 -56 122 -29 0 -41 12 -49 47 -10 50 -37 63
-128 63 -69 0 -81 -3 -102 -25z m145 -95 c0 -17 9 -39 20 -50 11 -11 33 -20
50 -20 28 0 30 -2 30 -40 0 -37 -2 -39 -35 -46 -41 -7 -65 -36 -65 -76 0 -26
-3 -28 -40 -28 -37 0 -40 2 -40 28 0 39 -18 59 -65 75 -36 13 -40 17 -40 48 0
31 3 34 32 37 37 4 73 42 73 78 0 21 5 24 40 24 38 0 40 -2 40 -30z"/>
<path d="M1931 1406 c-18 -21 -10 -97 12 -110 28 -18 52 4 55 53 3 46 -10 71
-38 71 -10 0 -23 -6 -29 -14z"/>
<path d="M2473 3691 c-42 -26 -53 -49 -53 -108 0 -82 55 -143 131 -143 22 0
41 10 65 34 29 29 34 41 34 83 0 107 -99 182 -177 134z m75 -83 c7 -7 12 -27
12 -46 0 -29 -3 -33 -22 -30 -27 4 -46 52 -28 73 15 18 22 19 38 3z"/>
<path d="M2771 3693 c-88 -44 -106 -186 -28 -233 45 -28 89 -25 128 7 79 67
76 188 -6 227 -41 20 -52 20 -94 -1z m67 -110 c3 -33 -19 -59 -43 -49 -20 7
-19 36 1 64 21 30 38 23 42 -15z"/>
<path d="M2253 3535 c-39 -17 -53 -42 -53 -97 0 -52 28 -101 69 -123 38 -19
110 -19 138 0 28 19 46 77 38 115 -9 40 -51 89 -92 106 -40 17 -59 17 -100 -1z
m87 -95 c24 -24 26 -48 4 -57 -21 -8 -69 40 -61 61 9 22 33 20 57 -4z"/>
<path d="M2980 3527 c-81 -43 -106 -142 -51 -198 25 -24 38 -29 79 -29 135 0
196 176 82 235 -39 20 -59 19 -110 -8z m80 -91 c0 -25 -32 -56 -57 -56 -18 0
-16 40 4 62 24 27 53 23 53 -6z"/>
<path d="M2560 3379 c-60 -27 -117 -83 -146 -144 -68 -143 16 -347 142 -345
256 3 283 5 311 25 15 12 42 48 58 80 42 84 42 167 0 250 -34 66 -101 125
-165 144 -59 18 -149 13 -200 -10z m202 -85 c92 -48 131 -155 92 -254 -23 -57
-57 -73 -125 -59 -38 8 -67 8 -111 -1 -51 -10 -63 -9 -85 5 -51 34 -70 150
-36 222 44 95 170 136 265 87z"/>
<path d="M2024 3201 c-27 -12 -37 -37 -24 -62 9 -17 22 -19 103 -19 95 0 117
8 117 41 0 9 -7 22 -15 29 -19 16 -152 24 -181 11z"/>
<path d="M3153 3200 c-25 -10 -31 -48 -11 -68 18 -18 182 -16 198 3 17 21 4
61 -22 69 -34 9 -140 6 -165 -4z"/>
<path d="M2006 3024 c-21 -20 -20 -30 4 -54 18 -18 33 -20 141 -20 130 0 159
8 159 43 0 42 -16 47 -156 47 -107 0 -136 -3 -148 -16z"/>
<path d="M3038 3014 c-11 -23 -10 -29 11 -45 20 -16 41 -19 143 -19 129 0 158
8 158 43 0 42 -16 47 -162 47 l-138 0 -12 -26z"/>
</g>
</svg>
