<?xml version="1.0" standalone="no"?>
<!DOCTYPE svg PUBLIC "-//W3C//DTD SVG 20010904//EN"
 "http://www.w3.org/TR/2001/REC-SVG-20010904/DTD/svg10.dtd">
<svg version="1.0" xmlns="http://www.w3.org/2000/svg"
 width="488.000000pt" height="462.000000pt" viewBox="0 0 488.000000 462.000000"
 preserveAspectRatio="xMidYMid meet">

<g transform="translate(0.000000,462.000000) scale(0.100000,-0.100000)"
fill="#000000" stroke="none">
<path d="M2900 3765 l0 -105 50 0 50 0 0 105 0 105 -50 0 -50 0 0 -105z"/>
<path d="M2560 3765 l-34 -35 87 -88 87 -87 35 35 35 35 -88 88 -88 87 -34
-35z"/>
<path d="M3210 3635 l-85 -85 35 -35 35 -35 90 90 89 90 -29 30 c-16 16 -34
30 -40 30 -6 0 -49 -38 -95 -85z"/>
<path d="M1725 3614 c-207 -31 -409 -115 -561 -235 -532 -420 -594 -1186 -135
-1690 l61 -67 -26 -46 c-32 -58 -37 -60 -75 -41 -26 14 -34 14 -51 3 -21 -14
-264 -427 -275 -466 -3 -15 0 -29 9 -38 24 -25 499 -294 517 -294 27 0 38 16
176 257 137 239 137 240 80 277 l-26 17 28 50 c22 41 31 49 47 44 237 -69 431
-78 640 -30 265 62 519 234 674 458 234 338 274 757 108 1127 -112 252 -300
445 -552 567 -161 78 -273 104 -459 108 -82 2 -163 1 -180 -1z m400 -122 c104
-29 150 -48 242 -97 498 -265 694 -883 441 -1390 -196 -392 -621 -625 -1047
-576 -140 17 -228 43 -356 106 -283 140 -473 378 -557 698 -18 68 -22 109 -22
242 1 140 4 172 26 256 108 401 426 698 831 775 104 20 350 12 442 -14z m-815
-2022 c70 -35 72 -37 53 -74 -29 -58 -27 -58 -139 6 -57 33 -104 62 -104 64 0
7 31 67 42 81 7 9 22 3 56 -21 26 -19 67 -44 92 -56z m-135 -154 c99 -58 181
-109 183 -115 3 -9 -168 -314 -187 -334 -11 -11 -387 210 -383 225 8 30 186
328 196 328 6 0 92 -47 191 -104z"/>
<path d="M1775 3360 c-310 -34 -582 -228 -715 -512 -91 -195 -110 -386 -58
-598 75 -312 317 -561 633 -652 68 -19 103 -23 235 -23 177 0 241 13 377 75
104 48 161 87 247 169 182 175 276 394 276 646 0 426 -293 791 -707 879 -89
19 -201 25 -288 16z m304 -120 c143 -40 258 -107 361 -210 96 -96 170 -223
206 -355 24 -90 30 -284 10 -370 -16 -69 -52 -172 -66 -188 -4 -5 -28 24 -54
64 -40 63 -46 80 -46 125 l0 52 54 30 c29 17 56 38 60 47 7 20 -19 197 -35
237 -12 30 -43 47 -143 77 -56 17 -94 21 -220 21 -142 0 -156 -2 -244 -31 -65
-22 -97 -38 -108 -55 -19 -28 -49 -213 -41 -246 4 -15 26 -33 62 -53 55 -29
55 -29 55 -77 0 -32 -12 -78 -35 -135 l-35 -87 0 -208 0 -208 -40 0 -40 0 0
185 0 186 -30 59 -30 59 30 63 c30 62 30 65 30 235 0 94 -3 178 -6 187 -10 26
-61 19 -109 -14 -42 -29 -47 -30 -160 -30 -111 0 -118 1 -158 28 -58 39 -71
43 -96 26 -20 -14 -21 -24 -21 -175 l0 -159 -46 -70 c-26 -39 -50 -70 -54 -70
-11 0 -38 105 -51 195 -13 99 -5 204 27 313 88 303 338 523 649 571 83 13 240
4 324 -19z m332 -592 c73 -23 73 -22 85 -115 6 -51 6 -53 -26 -70 -79 -44 -80
-46 -80 -146 l0 -92 70 -109 69 -109 -29 -37 c-50 -64 -147 -147 -220 -191
-74 -44 -206 -93 -277 -103 l-43 -6 0 198 0 198 35 87 c29 72 35 99 35 161 0
41 -3 81 -6 90 -3 9 -30 30 -60 47 -54 30 -54 31 -48 67 20 114 14 105 84 129
94 32 313 33 411 1z m-906 -148 c104 0 155 4 163 12 9 9 12 -12 12 -98 0 -93
-3 -115 -21 -149 -52 -95 -52 -95 -14 -174 l35 -73 0 -164 0 -165 -22 6 c-175
53 -324 158 -431 304 l-46 62 23 37 c13 20 46 72 75 116 l51 79 0 115 c0 90 3
113 12 104 8 -8 59 -12 163 -12z"/>
<path d="M2070 2505 c-20 -25 -8 -50 25 -50 24 0 31 5 33 24 6 37 -34 55 -58
26z"/>
<path d="M2302 2511 c-8 -4 -12 -19 -10 -32 2 -19 9 -24 33 -24 33 0 45 25 25
50 -14 17 -29 19 -48 6z"/>
<path d="M2164 2366 c-12 -32 1 -51 36 -54 41 -4 65 20 49 49 -12 23 -77 27
-85 5z"/>
<path d="M1400 2395 c-26 -31 13 -82 44 -56 19 16 21 42 4 59 -16 16 -33 15
-48 -3z"/>
<path d="M1568 2399 c-24 -13 -23 -46 1 -59 11 -5 22 -10 25 -10 8 0 36 31 36
40 0 10 -29 40 -38 40 -4 0 -15 -5 -24 -11z"/>
<path d="M3302 3303 l3 -48 103 -3 102 -3 0 51 0 50 -106 0 -105 0 3 -47z"/>
<path d="M3225 3090 l-29 -30 89 -90 90 -90 35 35 35 35 -85 85 c-46 47 -89
85 -95 85 -6 0 -24 -14 -40 -30z"/>
<path d="M3365 1903 c-97 -35 -162 -102 -190 -196 -24 -82 -22 -87 34 -87 49
0 49 0 56 38 9 51 46 105 92 133 57 36 154 34 210 -3 62 -41 88 -90 88 -168 0
-51 -5 -73 -24 -103 -31 -51 -85 -86 -144 -93 -76 -10 -77 -13 -77 -195 l0
-159 50 0 50 0 0 129 0 129 33 6 c49 9 122 59 157 107 83 115 75 274 -19 382
-71 81 -213 117 -316 80z"/>
<path d="M3426 954 c-31 -30 -9 -84 34 -84 24 0 50 26 50 50 0 24 -26 50 -50
50 -10 0 -26 -7 -34 -16z"/>
</g>
</svg>
